<?xml version="1.0" standalone="no"?>
<!DOCTYPE svg PUBLIC "-//W3C//DTD SVG 20010904//EN"
 "http://www.w3.org/TR/2001/REC-SVG-20010904/DTD/svg10.dtd">
<svg version="1.0" xmlns="http://www.w3.org/2000/svg"
 width="1762.000000pt" height="1762.000000pt" viewBox="0 0 1762.000000 1762.000000"
 preserveAspectRatio="xMidYMid meet">
<metadata>
Created by potrace 1.14, written by Peter Selinger 2001-2017
</metadata>
<g transform="translate(0.000000,1762.000000) scale(0.100000,-0.100000)"
fill="#000000" stroke="none">
<path d="M8499 15965 c-2 -1 -54 -6 -114 -9 -61 -4 -124 -9 -140 -10 -17 -2
-61 -7 -100 -11 -111 -10 -204 -21 -255 -30 -14 -2 -45 -7 -70 -10 -25 -3 -83
-13 -130 -21 -47 -9 -96 -18 -110 -20 -62 -11 -231 -47 -285 -61 -33 -8 -67
-16 -75 -18 -36 -7 -152 -38 -227 -61 -45 -14 -90 -27 -100 -29 -39 -8 -425
-143 -488 -170 -26 -11 -59 -24 -75 -30 -6 -2 -40 -17 -190 -83 -172 -75 -503
-246 -649 -334 -34 -21 -65 -38 -67 -38 -8 0 -295 -189 -409 -269 -174 -123
-405 -304 -531 -416 -6 -5 -45 -39 -85 -75 -78 -68 -388 -376 -474 -470 -460
-503 -886 -1144 -1159 -1742 -14 -32 -38 -84 -52 -115 -34 -73 -144 -348 -173
-433 -13 -36 -27 -74 -31 -85 -44 -103 -194 -633 -224 -790 -2 -11 -7 -31 -10
-45 -7 -30 -9 -42 -46 -245 -15 -88 -31 -184 -35 -214 -4 -30 -8 -61 -10 -70
-1 -9 -6 -45 -10 -81 -4 -36 -8 -72 -10 -81 -2 -8 -6 -55 -10 -105 -4 -49 -8
-99 -10 -112 -18 -110 -25 -661 -12 -922 8 -165 11 -197 33 -405 15 -150 52
-397 79 -535 2 -14 7 -36 10 -50 7 -32 14 -68 21 -104 2 -16 6 -32 8 -35 2 -3
7 -22 10 -41 8 -55 76 -321 90 -360 8 -19 14 -39 15 -45 7 -50 136 -442 181
-550 5 -11 21 -51 35 -90 85 -218 260 -586 388 -815 88 -155 207 -352 229
-376 10 -11 18 -24 18 -28 0 -19 342 -490 407 -561 10 -11 36 -43 58 -70 21
-28 42 -52 45 -55 3 -3 20 -23 39 -45 212 -250 582 -611 824 -805 11 -8 24
-20 31 -25 22 -20 232 -182 286 -220 30 -22 57 -42 60 -45 23 -28 478 -313
625 -392 33 -18 69 -38 80 -44 57 -33 359 -181 471 -230 253 -111 677 -264
824 -299 8 -2 94 -24 190 -49 207 -53 369 -88 575 -120 185 -30 267 -40 405
-51 47 -4 88 -9 91 -11 13 -8 327 -18 554 -18 284 0 459 8 645 29 30 4 73 8
95 10 22 2 62 6 90 10 27 4 59 8 70 10 486 61 1107 228 1575 425 69 28 140 57
158 63 17 7 32 15 32 19 0 5 7 8 15 8 8 0 31 9 52 19 21 11 90 44 153 75 210
102 426 223 613 343 54 35 102 63 107 63 6 0 10 5 10 10 0 6 6 10 14 10 8 0
16 3 18 8 2 4 23 20 48 37 66 44 338 242 350 255 3 3 50 41 105 85 55 44 102
82 105 85 3 3 39 34 80 70 215 186 540 514 705 715 22 26 45 53 50 59 102 109
487 643 545 756 7 14 16 27 20 30 4 3 13 17 21 32 8 15 45 81 83 145 63 107
265 499 308 598 10 22 31 70 48 107 16 36 30 68 30 71 0 2 8 22 17 43 9 22 18
44 19 49 1 6 15 39 29 75 114 273 289 868 331 1130 3 19 8 38 10 41 1 3 8 34
14 70 5 35 12 76 15 92 26 146 26 147 50 342 37 309 49 505 49 835 0 334 -19
679 -49 870 -2 14 -7 50 -10 80 -3 30 -8 62 -10 70 -2 8 -7 40 -10 70 -3 30
-10 73 -15 95 -5 22 -11 57 -14 78 -5 31 -23 121 -62 305 -2 13 -14 60 -25
105 -12 45 -27 109 -35 142 -8 33 -19 71 -23 85 -5 14 -17 52 -26 85 -46 162
-132 413 -203 595 -243 616 -593 1222 -1011 1750 -41 52 -80 100 -86 106 -5 6
-28 33 -50 59 -131 156 -194 224 -375 405 -197 197 -276 271 -425 395 -33 28
-62 52 -65 55 -3 3 -27 23 -55 45 -27 22 -55 44 -61 50 -7 5 -24 19 -39 30
-15 11 -76 56 -135 100 -111 82 -126 93 -171 123 -14 9 -66 44 -115 76 -294
194 -737 436 -994 541 -36 14 -78 32 -95 40 -75 34 -405 158 -450 169 -5 2
-17 6 -25 9 -75 31 -563 162 -680 183 -14 3 -68 13 -120 24 -52 10 -111 21
-130 24 -19 3 -44 7 -55 10 -35 7 -98 16 -140 21 -22 3 -53 7 -70 9 -16 3 -59
7 -95 11 -36 4 -76 8 -90 11 -14 2 -63 7 -110 10 -47 3 -101 8 -120 11 -41 5
-746 13 -751 8z"/>
</g>
</svg>
